<svg width="24" height="24" viewBox="0 0 24 24" fill="none" xmlns="http://www.w3.org/2000/svg">
<path d="M22.46 7.57L12.357 2.115C12.134 1.995 11.867 1.995 11.644 2.115L1.543 7.57C1.179 7.767 1.043 8.222 1.24 8.587C1.375 8.837 1.634 8.98 1.9 8.98C2.02 8.98 2.143 8.95 2.256 8.89L3.071 8.45L4.7 19.963C4.914 21.178 6.008 22.025 7.358 22.025H16.64C17.992 22.025 19.085 21.177 19.303 19.938L20.929 8.448L21.747 8.89C22.111 9.083 22.567 8.95 22.764 8.586C22.96 8.223 22.824 7.768 22.46 7.57V7.57ZM17.822 19.703C17.715 20.309 17.119 20.525 16.642 20.525H7.36C6.88 20.525 6.285 20.309 6.182 19.727L4.48 7.69L12 3.628L19.522 7.688L17.822 19.703V19.703Z" fill="black"/>
<path d="M8.22 12.184C8.22 14.268 9.915 15.964 12 15.964C14.085 15.964 15.78 14.268 15.78 12.184C15.78 10.1 14.085 8.404 12 8.404C9.915 8.404 8.22 10.1 8.22 12.184ZM14.28 12.184C14.28 13.442 13.258 14.464 12 14.464C10.742 14.464 9.72 13.442 9.72 12.184C9.72 10.926 10.742 9.904 12 9.904C13.258 9.904 14.28 10.926 14.28 12.184Z" fill="black"/>
</svg>
