<svg width="24" height="24" viewBox="0 0 24 24" fill="none" xmlns="http://www.w3.org/2000/svg">
<path d="M21.697 16.468C21.677 16.452 19.557 14.828 19.594 10.438C19.614 7.905 18.782 5.656 17.247 4.104C15.872 2.711 14.01 1.94 12.005 1.932H11.992C9.988 1.94 8.126 2.712 6.75 4.104C5.216 5.657 4.383 7.906 4.404 10.437C4.441 14.769 2.384 16.404 2.302 16.467C2.042 16.661 1.936 16.997 2.037 17.305C2.138 17.613 2.427 17.82 2.75 17.82H7.244C7.344 20.364 9.432 22.407 12 22.407C14.568 22.407 16.655 20.364 16.756 17.82H21.25C21.574 17.82 21.86 17.612 21.962 17.305C22.064 16.998 21.957 16.661 21.697 16.468V16.468ZM12 20.408C10.534 20.408 9.343 19.261 9.244 17.82H14.756C14.656 19.26 13.466 20.407 12 20.407V20.408Z" fill="black"/>
</svg>
