<svg width="24" height="24" viewBox="0 0 24 24" fill="none" xmlns="http://www.w3.org/2000/svg">
<path d="M12 11.816C13.355 11.816 14.872 11.666 15.84 10.56C16.654 9.63 16.918 8.192 16.646 6.168C16.266 3.343 14.529 1.656 12 1.656C9.471 1.656 7.734 3.343 7.354 6.17C7.082 8.192 7.346 9.63 8.16 10.56C9.128 11.667 10.645 11.816 12 11.816V11.816ZM8.84 6.368C9.002 5.168 9.627 3.156 12 3.156C14.373 3.156 14.998 5.169 15.16 6.368C15.367 7.918 15.217 8.995 14.71 9.573C14.255 10.093 13.444 10.316 12 10.316C10.556 10.316 9.745 10.093 9.29 9.573C8.783 8.995 8.633 7.917 8.84 6.368ZM20.28 19.236C19.403 15.71 15.998 13.246 12 13.246C8.002 13.246 4.597 15.71 3.72 19.236C3.548 19.928 3.692 20.636 4.115 21.176C4.523 21.696 5.155 21.996 5.848 21.996H18.152C18.845 21.996 19.477 21.696 19.885 21.176C20.309 20.636 20.452 19.929 20.279 19.236H20.28ZM18.704 20.252C18.578 20.412 18.388 20.498 18.152 20.498H5.848C5.613 20.498 5.422 20.413 5.296 20.252C5.159 20.078 5.116 19.84 5.176 19.598C5.886 16.743 8.693 14.748 12 14.748C15.307 14.748 18.114 16.742 18.824 19.598C18.884 19.84 18.841 20.078 18.704 20.252V20.252Z" fill="black"/>
</svg>
