<svg width="24" height="24" viewBox="0 0 24 24" fill="none" xmlns="http://www.w3.org/2000/svg">
<path d="M23.77 15.67C23.478 15.377 23.003 15.377 22.71 15.67L20.49 17.89V7.65C20.49 5.582 18.807 3.9 16.74 3.9H10.89C10.476 3.9 10.14 4.236 10.14 4.65C10.14 5.064 10.476 5.4 10.89 5.4H16.74C17.98 5.4 18.99 6.41 18.99 7.65V17.89L16.77 15.67C16.477 15.377 16.002 15.377 15.71 15.67C15.418 15.963 15.416 16.438 15.71 16.73L19.21 20.23C19.355 20.377 19.547 20.45 19.74 20.45C19.933 20.45 20.123 20.378 20.27 20.23L23.77 16.73C24.064 16.438 24.064 15.963 23.77 15.67V15.67ZM13.11 18.95H7.26001C6.02001 18.95 5.01001 17.94 5.01001 16.7V6.46L7.23001 8.68C7.37801 8.827 7.57001 8.9 7.76201 8.9C7.95401 8.9 8.146 8.827 8.292 8.68C8.585 8.387 8.585 7.912 8.292 7.62L4.79201 4.12C4.49901 3.826 4.02401 3.826 3.73201 4.12L0.232005 7.62C-0.0619949 7.912 -0.0619949 8.387 0.232005 8.68C0.526005 8.973 0.999005 8.973 1.29201 8.68L3.51201 6.46V16.7C3.51201 18.768 5.19501 20.45 7.26201 20.45H13.112C13.526 20.45 13.862 20.114 13.862 19.7C13.862 19.286 13.525 18.95 13.112 18.95H13.11Z" fill="black"/>
</svg>
