<svg width="24" height="24" viewBox="0 0 24 24" fill="none" xmlns="http://www.w3.org/2000/svg">
<path d="M18.466 14.928C17.348 14.928 16.36 15.453 15.701 16.256L9.114 12.898C9.18 12.628 9.22399 12.348 9.22399 12.056C9.22399 11.769 9.18199 11.494 9.11799 11.226L15.693 7.906C16.351 8.716 17.343 9.246 18.467 9.246C20.445 9.246 22.053 7.64 22.053 5.666C22.053 3.692 20.445 2.086 18.467 2.086C16.489 2.086 14.881 3.692 14.881 5.666C14.881 5.98 14.935 6.28 15.011 6.57L8.463 9.876C7.807 9.03 6.79099 8.476 5.63899 8.476C3.65899 8.476 2.05099 10.082 2.05099 12.056C2.05099 14.03 3.66099 15.636 5.63799 15.636C6.78399 15.636 7.79599 15.086 8.45299 14.246L15.013 17.589C14.933 17.883 14.878 18.187 14.878 18.507C14.878 20.481 16.486 22.087 18.464 22.087C20.442 22.087 22.05 20.481 22.05 18.507C22.05 16.533 20.44 14.927 18.464 14.927L18.466 14.928ZM18.466 3.588C19.616 3.588 20.552 4.52 20.552 5.666C20.552 6.812 19.616 7.746 18.466 7.746C17.316 7.746 16.38 6.812 16.38 5.666C16.38 4.52 17.315 3.586 18.466 3.586V3.588ZM5.63999 14.134C4.48999 14.134 3.55199 13.201 3.55199 12.054C3.55199 10.907 4.48899 9.974 5.63899 9.974C6.78899 9.974 7.72399 10.909 7.72399 12.054C7.72399 13.199 6.78799 14.134 5.63799 14.134H5.63999ZM18.466 20.586C17.316 20.586 16.38 19.653 16.38 18.506C16.38 17.359 17.316 16.426 18.466 16.426C19.616 16.426 20.552 17.361 20.552 18.506C20.552 19.651 19.616 20.586 18.466 20.586Z" fill="black"/>
</svg>
