<svg width="24" height="24" viewBox="0 0 24 24" fill="none" xmlns="http://www.w3.org/2000/svg">
<path d="M23.643 4.937C22.808 5.307 21.911 5.557 20.968 5.67C21.93 5.094 22.668 4.18 23.016 3.092C22.116 3.626 21.119 4.014 20.058 4.222C19.208 3.318 17.998 2.752 16.658 2.752C14.086 2.752 12 4.838 12 7.412C12 7.776 12.042 8.13 12.12 8.472C8.247 8.277 4.816 6.422 2.518 3.604C2.118 4.294 1.888 5.094 1.888 5.946C1.888 7.562 2.711 8.989 3.96 9.824C3.196 9.799 2.478 9.59 1.85 9.241V9.301C1.85 11.558 3.455 13.441 5.587 13.869C5.195 13.975 4.784 14.031 4.36 14.031C4.06 14.031 3.767 14.003 3.483 13.949C4.076 15.799 5.796 17.147 7.835 17.183C6.24 18.433 4.231 19.178 2.049 19.178C1.673 19.178 1.302 19.156 0.937 19.113C2.999 20.436 5.447 21.206 8.077 21.206C16.647 21.206 21.332 14.108 21.332 7.952C21.332 7.752 21.327 7.55 21.318 7.35C22.228 6.692 23.018 5.873 23.641 4.94L23.643 4.937Z" fill="black"/>
</svg>
